<svg width="636" height="90" viewBox="0 0 636 90" fill="none" xmlns="http://www.w3.org/2000/svg">
<mask id="mask0_204_110" style="mask-type:alpha" maskUnits="userSpaceOnUse" x="0" y="-15" width="636" height="105">
<path d="M0 -15L635.829 -15L635.829 90L-1.63055e-07 90L0 -15Z" fill="white"/>
</mask>
<g mask="url(#mask0_204_110)">
<path fill-rule="evenodd" clip-rule="evenodd" d="M32.2119 68.677C-80.0903 139.199 626.943 258.302 674.023 228.549C724.339 196.76 740.213 20.3327 657.627 -22.1375C587.252 -58.3307 173.57 -40.1677 134.092 -22.1373C82.238 1.53935 134.092 19.8107 123.272 46.0607C103.794 68.677 76.0924 41.119 32.2119 68.677Z" fill="#CBAD92"/>
<path fill-rule="evenodd" clip-rule="evenodd" d="M36.5398 65.2512C-75.7624 135.773 631.271 254.877 678.351 225.123C728.667 193.334 744.541 16.907 661.955 -25.5633C591.58 -61.7565 177.898 -43.5935 138.42 -25.5631C86.5658 -1.88643 138.42 16.3849 127.599 42.6349C108.121 65.2512 80.4203 37.6932 36.5398 65.2512Z" fill="#F5E5D5"/>
</g>
</svg>
